<svg width="40" height="40" viewBox="0 0 40 40" fill="none" xmlns="http://www.w3.org/2000/svg">
<path fill-rule="evenodd" clip-rule="evenodd" d="M27.3515 4.6144L27.3531 5.86378C31.9442 6.2236 34.9769 9.35203 34.9819 14.1496L35 28.1926C35.0065 33.4233 31.7204 36.6417 26.453 36.65L13.5865 36.6667C8.35199 36.6733 5.02469 33.3783 5.01811 28.1326L5.00001 14.2546C4.99343 9.42533 7.91921 6.30522 12.5103 5.88377L12.5086 4.63439C12.507 3.90143 13.05 3.35004 13.7741 3.35004C14.4981 3.34837 15.0411 3.89809 15.0428 4.63106L15.0444 5.79714L24.819 5.78382L24.8173 4.61773C24.8157 3.88477 25.3587 3.33504 26.0828 3.33338C26.7903 3.33171 27.3498 3.88144 27.3515 4.6144ZM7.5358 14.7693L32.4494 14.736V14.153C32.3786 10.5714 30.5817 8.69236 27.3564 8.4125L27.3581 9.69519C27.3581 10.4115 26.8002 10.9795 26.0926 10.9795C25.3686 10.9812 24.8239 10.4148 24.8239 9.69852L24.8223 8.3492L15.0477 8.36253L15.0494 9.71019C15.0494 10.4282 14.508 10.9945 13.7839 10.9945C13.0599 10.9962 12.5152 10.4315 12.5152 9.71352L12.5136 8.43083C9.30477 8.75233 7.52922 10.6381 7.53416 14.2512L7.5358 14.7693ZM25.3999 22.3405V22.3589C25.4163 23.1251 26.0416 23.7065 26.8002 23.6899C27.5407 23.6715 28.1315 23.0368 28.115 22.2706C28.0805 21.5376 27.4864 20.9396 26.7476 20.9412C25.9906 20.9579 25.3982 21.5742 25.3999 22.3405ZM26.7591 29.8201C26.0021 29.8035 25.3916 29.1721 25.39 28.4058C25.3735 27.6395 25.9807 27.0049 26.7377 26.9865H26.7541C27.5275 26.9865 28.1545 27.6179 28.1545 28.4008C28.1561 29.1838 27.5308 29.8184 26.7591 29.8201ZM18.6202 22.3672C18.6531 23.1335 19.2801 23.7315 20.037 23.6982C20.7775 23.6632 21.3683 23.0302 21.3354 22.2639C21.3173 21.5143 20.7084 20.9312 19.9679 20.9329C19.211 20.9662 18.6186 21.6009 18.6202 22.3672ZM20.0436 29.7452C19.2867 29.7785 18.6613 29.1804 18.6268 28.4142C18.6268 27.6479 19.2175 27.0149 19.9745 26.9799C20.715 26.9782 21.3255 27.5612 21.3419 28.3092C21.3765 29.0772 20.7841 29.7102 20.0436 29.7452ZM11.8406 22.4255C11.8735 23.1918 12.5004 23.7915 13.2574 23.7565C13.9979 23.7232 14.5886 23.0885 14.5541 22.3222C14.5376 21.5726 13.9288 20.9895 13.1866 20.9912C12.4297 21.0245 11.8389 21.6592 11.8406 22.4255ZM13.2639 29.7535C12.507 29.7885 11.8817 29.1888 11.8471 28.4225C11.8455 27.6562 12.4379 27.0215 13.1948 26.9882C13.9353 26.9865 14.5458 27.5696 14.5623 28.3192C14.5968 29.0855 14.0061 29.7202 13.2639 29.7535Z"/>
</svg>
