<svg width="20" height="20" viewBox="0 0 20 20" fill="none" xmlns="http://www.w3.org/2000/svg">
<path fill-rule="evenodd" clip-rule="evenodd" d="M17 9C17 12.3137 14.3137 15 11 15C7.68629 15 5 12.3137 5 9C5 5.68629 7.68629 3 11 3C14.3137 3 17 5.68629 17 9ZM19 9C19 13.4183 15.4183 17 11 17C9.15129 17 7.44904 16.3729 6.09436 15.3199L2.70711 18.7071C2.31658 19.0976 1.68342 19.0976 1.29289 18.7071C0.902369 18.3166 0.902369 17.6834 1.29289 17.2929L4.68014 13.9056C3.62708 12.551 3 10.8487 3 9C3 4.58172 6.58172 1 11 1C15.4183 1 19 4.58172 19 9Z" fill="white"/>
</svg>
