<svg width="40" height="40" viewBox="0 0 40 40" fill="none" xmlns="http://www.w3.org/2000/svg">
<g clip-path="url(#clip0_1_189)">
<path d="M6.305 4.70996L20 1.66663L33.695 4.70996C34.0651 4.79223 34.3961 4.99823 34.6334 5.29397C34.8706 5.5897 34.9999 5.95749 35 6.33663V22.9816C34.9999 24.6278 34.5933 26.2486 33.8165 27.7C33.0396 29.1514 31.9164 30.3885 30.5467 31.3016L20 38.3333L9.45333 31.3016C8.08379 30.3887 6.96077 29.1518 6.18391 27.7007C5.40706 26.2496 5.00039 24.6292 5 22.9833V6.33663C5.00007 5.95749 5.1294 5.5897 5.36665 5.29397C5.6039 4.99823 5.93489 4.79223 6.305 4.70996ZM21.6667 16.6666V8.33329L13.3333 20H18.3333V28.3333L26.6667 16.6666H21.6667Z"/>
</g>
<defs>
<clipPath id="clip0_1_189">
<rect width="40" height="40" fill="white"/>
</clipPath>
</defs>
</svg>
