<svg width="20" height="20" viewBox="0 0 20 20" xmlns="http://www.w3.org/2000/svg">
<path fill-rule="evenodd" clip-rule="evenodd" d="M13.6297 6.4546C13.6297 8.30356 12.0647 9.90919 10.0004 9.90919C7.93611 9.90919 6.37112 8.30356 6.37112 6.4546C6.37112 4.60564 7.93611 3 10.0004 3C12.0647 3 13.6297 4.60564 13.6297 6.4546ZM15.6297 6.4546C15.6297 9.46709 13.1094 11.9092 10.0004 11.9092C6.89144 11.9092 4.37112 9.46709 4.37112 6.4546C4.37112 3.44211 6.89144 1 10.0004 1C13.1094 1 15.6297 3.44211 15.6297 6.4546ZM4.42809 12.2041C4.56522 12.1024 4.7288 12.0402 4.89938 12.0327C5.54734 12.0044 5.84604 12.1572 6.08334 12.4479C6.45793 12.9068 6.21727 13.6176 5.74504 13.9752C4.77131 14.7126 4.01896 15.6957 3.58995 16.8182H16.4101C15.9811 15.696 15.229 14.713 14.2556 13.9757C13.7833 13.618 13.5428 12.907 13.9175 12.4481C14.1549 12.1573 14.4535 12.0045 15.1014 12.0331C15.2719 12.0406 15.4353 12.1028 15.5724 12.2045C17.4135 13.5707 18.6851 15.5982 18.9919 17.9115C19.0711 18.509 18.5595 19 17.9377 19H2.06233C1.44054 19 0.92887 18.509 1.00812 17.9115C1.31494 15.598 2.58671 13.5703 4.42809 12.2041Z"/>
</svg>
