<svg width="40" height="40" viewBox="0 0 40 40" fill="none" xmlns="http://www.w3.org/2000/svg">
<g clip-path="url(#clip0_1_184)">
<path d="M36.6664 10H24.9997C22.3476 10 19.804 11.0536 17.9287 12.9289C16.0533 14.8043 14.9997 17.3478 14.9997 20C14.9997 22.6522 16.0533 25.1957 17.9287 27.0711C19.804 28.9464 22.3476 30 24.9997 30H36.6664V33.3333C36.6664 33.7754 36.4908 34.1993 36.1782 34.5118C35.8657 34.8244 35.4418 35 34.9997 35H4.99974C4.55771 35 4.13378 34.8244 3.82122 34.5118C3.50866 34.1993 3.33307 33.7754 3.33307 33.3333V6.66667C3.33307 6.22464 3.50866 5.80072 3.82122 5.48816C4.13378 5.17559 4.55771 5 4.99974 5H34.9997C35.4418 5 35.8657 5.17559 36.1782 5.48816C36.4908 5.80072 36.6664 6.22464 36.6664 6.66667V10ZM24.9997 13.3333H38.3331V26.6667H24.9997C23.2316 26.6667 21.5359 25.9643 20.2857 24.714C19.0354 23.4638 18.3331 21.7681 18.3331 20C18.3331 18.2319 19.0354 16.5362 20.2857 15.286C21.5359 14.0357 23.2316 13.3333 24.9997 13.3333ZM24.9997 18.3333V21.6667H29.9997V18.3333H24.9997Z"/>
</g>
<defs>
<clipPath id="clip0_1_184">
<rect width="40" height="40" fill="white"/>
</clipPath>
</defs>
</svg>
