<svg width="26" height="26" viewBox="0 0 26 26" fill="none" xmlns="http://www.w3.org/2000/svg">
<path fill-rule="evenodd" clip-rule="evenodd" d="M5.81748 5.25076C4.40282 5.32925 3.26645 6.56986 3.17465 8.15289C3.08669 9.66954 3 11.5357 3 13C3 14.4643 3.08669 16.3305 3.17465 17.8471C3.26645 19.4301 4.40282 20.6707 5.81748 20.7492C7.86599 20.8629 10.7939 21 13 21C15.2061 21 18.134 20.8629 20.1825 20.7492C21.5972 20.6707 22.7335 19.4301 22.8254 17.8471C22.9133 16.3305 23 14.4643 23 13C23 11.5357 22.9133 9.66954 22.8254 8.15289C22.7335 6.56987 21.5972 5.32925 20.1825 5.25076C18.134 5.13709 15.2061 5 13 5C10.7939 5 7.86599 5.13709 5.81748 5.25076ZM17.1667 13L10.5 16.2V9.8L17.1667 13Z"/>
</svg>
