<svg width="20" height="20" viewBox="0 0 20 20" fill="none" xmlns="http://www.w3.org/2000/svg">
<path fill-rule="evenodd" clip-rule="evenodd" d="M2.98794 3.55569C3.99483 2.49682 4.35068 2.19984 4.77976 2.06163C5.0767 1.98395 5.38812 1.97964 5.68711 2.04906C6.08071 2.16329 6.18483 2.2501 7.47549 3.53398C8.6094 4.66138 8.72267 4.7836 8.83137 5.00406C9.03922 5.39102 9.07169 5.84816 8.92062 6.26053C8.8062 6.57465 8.64372 6.78254 7.95606 7.47131L7.50753 7.92022C7.38974 8.03972 7.36206 8.22118 7.43888 8.37026C8.4354 10.0675 9.84922 11.4828 11.5466 12.4824C11.7419 12.5868 11.9825 12.5531 12.1415 12.399L12.5729 11.9752C12.8395 11.7024 13.1219 11.4453 13.4185 11.2053C13.8843 10.9198 14.4648 10.8943 14.954 11.1379C15.1931 11.2522 15.2721 11.323 16.4415 12.4881C17.6474 13.6886 17.6818 13.7263 17.8145 14.0015C18.0643 14.4572 18.0617 15.0091 17.8076 15.4625C17.6783 15.7183 17.5994 15.8109 16.9209 16.5031C16.5112 16.9211 16.1257 17.3026 16.0639 17.3586C15.5041 17.8213 14.786 18.0482 14.0615 17.9914C12.736 17.8708 11.453 17.4618 10.3028 16.7932C7.75483 15.4456 5.58573 13.482 3.99369 11.082C3.64693 10.5797 3.33865 10.052 3.07146 9.50337C2.35472 8.27702 1.98459 6.87956 2.00049 5.45982C2.05521 4.71708 2.41201 4.02905 2.98794 3.55569Z" stroke="#F3B411" stroke-width="2" stroke-linecap="round" stroke-linejoin="round"/>
</svg>
