<svg width="26" height="26" viewBox="0 0 26 26" fill="none" xmlns="http://www.w3.org/2000/svg">
<mask id="mask0_1_68" style="mask-type:alpha" maskUnits="userSpaceOnUse" x="3" y="3" width="20" height="20">
<path d="M19.5 7.89293C19.5 8.66218 18.8764 9.28578 18.1071 9.28578C17.3379 9.28578 16.7143 8.66218 16.7143 7.89293C16.7143 7.12367 17.3379 6.50007 18.1071 6.50007C18.8764 6.50007 19.5 7.12367 19.5 7.89293Z" fill="white"/>
<path fill-rule="evenodd" clip-rule="evenodd" d="M13 17.6429C15.5642 17.6429 17.6429 15.5642 17.6429 13.0001C17.6429 10.4359 15.5642 8.35721 13 8.35721C10.4358 8.35721 8.35714 10.4359 8.35714 13.0001C8.35714 15.5642 10.4358 17.6429 13 17.6429ZM13 15.7858C14.5385 15.7858 15.7857 14.5386 15.7857 13.0001C15.7857 11.4616 14.5385 10.2144 13 10.2144C11.4615 10.2144 10.2143 11.4616 10.2143 13.0001C10.2143 14.5386 11.4615 15.7858 13 15.7858Z" fill="white"/>
<path fill-rule="evenodd" clip-rule="evenodd" d="M3.71429 12.6286C3.71429 9.50835 3.71429 7.9482 4.32154 6.75641C4.85569 5.70808 5.70801 4.85576 6.75634 4.3216C7.94813 3.71436 9.50828 3.71436 12.6286 3.71436H13.3714C16.4917 3.71436 18.0519 3.71436 19.2437 4.3216C20.292 4.85576 21.1443 5.70808 21.6785 6.75641C22.2857 7.9482 22.2857 9.50835 22.2857 12.6286V13.3715C22.2857 16.4918 22.2857 18.0519 21.6785 19.2437C21.1443 20.2921 20.292 21.1444 19.2437 21.6785C18.0519 22.2858 16.4917 22.2858 13.3714 22.2858H12.6286C9.50828 22.2858 7.94813 22.2858 6.75634 21.6785C5.70801 21.1444 4.85569 20.2921 4.32154 19.2437C3.71429 18.0519 3.71429 16.4918 3.71429 13.3715V12.6286ZM12.6286 5.5715H13.3714C14.9622 5.5715 16.0436 5.57294 16.8795 5.64124C17.6937 5.70776 18.1101 5.82834 18.4005 5.97633C19.0994 6.33243 19.6676 6.90065 20.0237 7.59953C20.1717 7.88999 20.2923 8.30637 20.3588 9.12057C20.4271 9.95645 20.4286 11.0379 20.4286 12.6286V13.3715C20.4286 14.9623 20.4271 16.0437 20.3588 16.8796C20.2923 17.6938 20.1717 18.1102 20.0237 18.4006C19.6676 19.0995 19.0994 19.6677 18.4005 20.0238C18.1101 20.1718 17.6937 20.2924 16.8795 20.3589C16.0436 20.4272 14.9622 20.4286 13.3714 20.4286H12.6286C11.0378 20.4286 9.95638 20.4272 9.1205 20.3589C8.3063 20.2924 7.88992 20.1718 7.59946 20.0238C6.90058 19.6677 6.33236 19.0995 5.97626 18.4006C5.82827 18.1102 5.70769 17.6938 5.64117 16.8796C5.57287 16.0437 5.57143 14.9623 5.57143 13.3715V12.6286C5.57143 11.0379 5.57287 9.95645 5.64117 9.12057C5.70769 8.30637 5.82827 7.88999 5.97626 7.59953C6.33236 6.90065 6.90058 6.33243 7.59946 5.97633C7.88992 5.82834 8.3063 5.70776 9.1205 5.64124C9.95638 5.57294 11.0378 5.5715 12.6286 5.5715Z" fill="white"/>
</mask>
<g mask="url(#mask0_1_68)">
<rect x="3.71429" y="3.71436" width="18.5714" height="18.5714" rx="6" fill="white"/>
</g>
</svg>
