<svg width="24" height="24" viewBox="0 0 24 24" fill="none" xmlns="http://www.w3.org/2000/svg">
<path d="M2.0862 19.0072L8.33333 12M21.9161 19.005L15.6667 12M1.03518 7.42856L9.86722 12.94C10.6498 13.4264 11.0412 13.6697 11.4639 13.7642C11.8376 13.8477 12.227 13.8477 12.6007 13.7642C13.0235 13.6697 13.4148 13.4264 14.1974 12.94L22.9648 7.42856M6.86667 20H17.1333C19.1869 20 20.2136 20 20.998 19.6263C21.6879 19.2976 22.2488 18.7731 22.6004 18.128C23 17.3946 23 16.4345 23 14.5143V9.48571C23 7.56553 23 6.60544 22.6004 5.87203C22.2488 5.22691 21.6879 4.7024 20.998 4.37369C20.2136 4 19.1869 4 17.1333 4H6.86667C4.81314 4 3.78638 4 3.00203 4.37369C2.31211 4.7024 1.75118 5.22691 1.39964 5.87203C1 6.60544 1 7.56553 1 9.48572V14.5143C1 16.4345 1 17.3946 1.39964 18.128C1.75118 18.7731 2.31211 19.2976 3.00203 19.6263C3.78638 20 4.81314 20 6.86667 20Z" stroke="#F3B411" stroke-width="2" stroke-linecap="round" stroke-linejoin="round"/>
</svg>
