<?xml version="1.0" encoding="utf-8"?><svg viewBox="0 0 57 40" xmlns="http://www.w3.org/2000/svg" xmlns:xlink="http://www.w3.org/1999/xlink"><style>:root>svg{display:none}:root>svg:target{display:block}</style><svg viewBox="0 0 17 30" id="arrow-angle-left" xmlns="http://www.w3.org/2000/svg"><path d="M16 1L2 15l14 14"/></svg><svg viewBox="0 0 17 30" id="arrow-angle-right" xmlns="http://www.w3.org/2000/svg"><path d="M1 29l14-14L1 1"/></svg><svg viewBox="0 0 40 40" id="calendar" xmlns="http://www.w3.org/2000/svg"><path clip-rule="evenodd" d="M27.352 4.614l.001 1.25c4.591.36 7.624 3.488 7.629 8.286L35 28.193c.007 5.23-3.28 8.449-8.547 8.457l-12.867.017c-5.234.006-8.561-3.289-8.568-8.534L5 14.255c-.007-4.83 2.92-7.95 7.51-8.371l-.001-1.25c-.002-.733.541-1.284 1.265-1.284.724-.002 1.267.548 1.269 1.281l.001 1.166 9.775-.013-.002-1.166c-.001-.733.542-1.283 1.266-1.285.707-.001 1.267.548 1.269 1.281zM7.536 14.77l24.913-.033v-.583c-.07-3.582-1.867-5.46-5.093-5.74l.002 1.282c0 .716-.558 1.284-1.265 1.284-.724.002-1.27-.564-1.27-1.28V8.35l-9.775.014.001 1.347c0 .718-.541 1.284-1.265 1.284-.724.002-1.269-.563-1.269-1.28l-.001-1.283c-3.21.321-4.985 2.207-4.98 5.82l.002.518zM25.4 22.34v.019a1.356 1.356 0 001.4 1.33c.74-.017 1.331-.652 1.315-1.418-.034-.733-.629-1.331-1.367-1.33a1.38 1.38 0 00-1.348 1.4zm1.36 7.48a1.413 1.413 0 01-1.37-1.414 1.389 1.389 0 011.348-1.42h.016c.773 0 1.4.632 1.4 1.415a1.407 1.407 0 01-1.395 1.42zm-8.14-7.453c.033.767.66 1.364 1.417 1.331a1.372 1.372 0 001.298-1.434 1.36 1.36 0 00-1.367-1.331 1.422 1.422 0 00-1.348 1.434zm1.424 7.378c-.757.034-1.383-.565-1.417-1.33 0-.767.59-1.4 1.348-1.435a1.359 1.359 0 011.367 1.33 1.371 1.371 0 01-1.298 1.435zm-8.203-7.32c.033.767.66 1.366 1.416 1.331a1.368 1.368 0 001.297-1.434 1.358 1.358 0 00-1.367-1.33 1.42 1.42 0 00-1.346 1.433zm1.423 7.328c-.757.035-1.382-.564-1.417-1.33a1.422 1.422 0 011.348-1.435 1.36 1.36 0 011.367 1.331 1.369 1.369 0 01-1.298 1.434z"/></svg><svg viewBox="0 0 20 20" id="call" xmlns="http://www.w3.org/2000/svg"><path clip-rule="evenodd" d="M2.988 3.556C3.995 2.496 4.35 2.2 4.78 2.062c.297-.078.608-.082.907-.013.394.114.498.201 1.788 1.485 1.134 1.127 1.248 1.25 1.356 1.47.208.387.24.844.09 1.257-.115.314-.277.522-.965 1.21l-.448.45a.388.388 0 00-.07.45 11.573 11.573 0 004.109 4.111.51.51 0 00.595-.083l.43-.424c.268-.273.55-.53.847-.77a1.586 1.586 0 011.535-.067c.24.114.318.185 1.488 1.35 1.205 1.2 1.24 1.238 1.372 1.514.25.455.248 1.007-.006 1.46-.13.256-.209.349-.887 1.041-.41.418-.795.8-.857.856a2.8 2.8 0 01-2.002.632 9.125 9.125 0 01-3.76-1.198 17.246 17.246 0 01-6.308-5.711 12.118 12.118 0 01-.923-1.579 7.84 7.84 0 01-1.07-4.043 2.719 2.719 0 01.987-1.904z"/></svg><svg viewBox="0 0 57 38" id="check" xmlns="http://www.w3.org/2000/svg"><path d="M55.166 1.333l-34.31 34.31a3.333 3.333 0 01-4.713 0l-14.31-14.31"/></svg><svg viewBox="0 0 17 17" id="close" xmlns="http://www.w3.org/2000/svg"><g clip-path="url(#fa)"><path d="M16.792.207a.708.708 0 00-1.001 0L8.5 7.498 1.209.208a.708.708 0 00-1.002 1l7.291 7.29-7.29 7.292a.709.709 0 001.001 1.001l7.29-7.29 7.292 7.29a.708.708 0 001.001-1.001L9.502 8.5l7.29-7.291a.708.708 0 000-1.002z"/></g><defs><clipPath id="fa"><path d="M0 0h17v17H0z"/></clipPath></defs></svg><svg viewBox="0 0 26 26" id="instagram" xmlns="http://www.w3.org/2000/svg"><mask id="ga" maskUnits="userSpaceOnUse" x="3" y="3" width="20" height="20"><path d="M19.5 7.893a1.393 1.393 0 11-2.786 0 1.393 1.393 0 012.786 0z"/><path fill-rule="evenodd" clip-rule="evenodd" d="M13 17.643a4.643 4.643 0 100-9.286 4.643 4.643 0 000 9.286zm0-1.857a2.786 2.786 0 100-5.572 2.786 2.786 0 000 5.572z"/><path fill-rule="evenodd" clip-rule="evenodd" d="M3.714 12.629c0-3.12 0-4.68.608-5.873a5.571 5.571 0 012.434-2.434c1.192-.608 2.752-.608 5.873-.608h.742c3.12 0 4.68 0 5.873.608a5.572 5.572 0 012.434 2.434c.608 1.192.608 2.752.608 5.873v.742c0 3.12 0 4.68-.608 5.873a5.571 5.571 0 01-2.434 2.434c-1.192.608-2.752.608-5.873.608h-.742c-3.12 0-4.68 0-5.873-.608a5.57 5.57 0 01-2.434-2.434c-.608-1.192-.608-2.752-.608-5.873v-.742zm8.915-7.057h.742c1.591 0 2.673 0 3.508.07.815.066 1.231.186 1.521.334A3.714 3.714 0 0120.024 7.6c.148.29.268.706.335 1.52.068.836.07 1.918.07 3.509v.742c0 1.591-.002 2.673-.07 3.509-.067.814-.187 1.23-.335 1.52a3.714 3.714 0 01-1.623 1.624c-.29.148-.707.268-1.521.335-.836.068-1.918.07-3.509.07h-.742c-1.591 0-2.673-.002-3.508-.07-.815-.067-1.231-.187-1.522-.335A3.714 3.714 0 015.976 18.4c-.148-.29-.268-.707-.335-1.521-.068-.836-.07-1.918-.07-3.508v-.743c0-1.591.002-2.673.07-3.508.067-.815.187-1.231.335-1.521A3.714 3.714 0 017.6 5.976c.29-.148.707-.268 1.521-.335.836-.068 1.918-.07 3.509-.07z"/></mask><g mask="url(#ga)"><rect x="3.714" y="3.714" width="18.571" height="18.571" rx="6"/></g></svg><svg viewBox="0 0 20 20" id="search" xmlns="http://www.w3.org/2000/svg"><path fill-rule="evenodd" clip-rule="evenodd" d="M17 9A6 6 0 115 9a6 6 0 0112 0zm2 0a8 8 0 01-12.906 6.32l-3.387 3.387a1 1 0 01-1.414-1.414l3.387-3.387A8 8 0 1119 9z"/></svg><svg viewBox="0 0 40 40" id="shield" xmlns="http://www.w3.org/2000/svg"><g clip-path="url(#ia)"><path d="M6.305 4.71L20 1.667 33.695 4.71A1.667 1.667 0 0135 6.337v16.645a10 10 0 01-4.453 8.32L20 38.333 9.453 31.302A10 10 0 015 22.983V6.337A1.667 1.667 0 016.305 4.71zm15.362 11.957V8.333L13.333 20h5v8.333l8.334-11.666h-5z"/></g><defs><clipPath id="ia"><path d="M0 0h40v40H0z"/></clipPath></defs></svg><svg viewBox="0 0 20 20" id="user" xmlns="http://www.w3.org/2000/svg"><path fill-rule="evenodd" clip-rule="evenodd" d="M13.63 6.455c0 1.849-1.565 3.454-3.63 3.454-2.064 0-3.629-1.605-3.629-3.454C6.371 4.605 7.936 3 10.001 3c2.064 0 3.629 1.606 3.629 3.455zm2 0c0 3.012-2.52 5.454-5.63 5.454-3.109 0-5.629-2.442-5.629-5.454C4.371 3.442 6.891 1 10.001 1c3.108 0 5.629 2.442 5.629 5.455zm-11.202 5.75a.857.857 0 01.471-.172c.648-.029.947.124 1.184.415.375.459.134 1.17-.338 1.527a6.488 6.488 0 00-2.155 2.843h12.82a6.489 6.489 0 00-2.154-2.842c-.473-.358-.713-1.069-.338-1.528.237-.29.536-.444 1.183-.415.17.008.334.07.471.171 1.841 1.367 3.113 3.394 3.42 5.707.08.598-.433 1.089-1.054 1.089H2.062c-.621 0-1.133-.491-1.054-1.088.307-2.314 1.579-4.342 3.42-5.708z"/></svg><svg viewBox="0 0 40 40" id="wallet" xmlns="http://www.w3.org/2000/svg"><g clip-path="url(#ka)"><path d="M36.666 10H25a10 10 0 000 20h11.666v3.333A1.666 1.666 0 0135 35H5a1.667 1.667 0 01-1.667-1.667V6.667A1.667 1.667 0 015 5h30a1.666 1.666 0 011.666 1.667V10zM25 13.333h13.333v13.334H25a6.666 6.666 0 110-13.334zm0 5v3.334h5v-3.334h-5z"/></g><defs><clipPath id="ka"><path d="M0 0h40v40H0z"/></clipPath></defs></svg><svg viewBox="0 0 26 26" id="youtube" xmlns="http://www.w3.org/2000/svg"><path clip-rule="evenodd" d="M5.817 5.25c-1.414.08-2.55 1.32-2.642 2.903C3.087 9.67 3 11.536 3 13c0 1.464.087 3.33.175 4.847.091 1.583 1.228 2.824 2.642 2.902C7.866 20.863 10.794 21 13 21c2.206 0 5.134-.137 7.183-.25 1.414-.08 2.55-1.32 2.642-2.903C22.913 16.33 23 14.464 23 13c0-1.464-.087-3.33-.175-4.847-.091-1.583-1.228-2.824-2.642-2.902C18.134 5.137 15.206 5 13 5c-2.206 0-5.134.137-7.183.25zM17.167 13L10.5 16.2V9.8l6.667 3.2z"/></svg></svg>